<?xml version="1.0" encoding="UTF-8"?> <svg xmlns="http://www.w3.org/2000/svg" width="120" height="68" viewBox="0 0 120 68" fill="none"><rect width="118.301" height="68" transform="translate(0.966003)" fill="white"></rect><path d="M24.3633 26.3974H27.377L25.8701 22.5618L24.3633 26.3974Z" fill="#031642"></path><path d="M61.7605 23.1095C61.4866 22.9725 61.0756 22.9725 60.6647 22.9725H57.9249V25.1643H60.6647C61.0756 25.1643 61.4866 25.1643 61.7605 25.0273C62.0345 24.8903 62.1715 24.4793 62.1715 24.0684C62.3085 23.5204 62.0345 23.2464 61.7605 23.1095Z" fill="#031642"></path><path d="M91.0756 19V20.6438L90.2537 19H83.8153V20.6438L82.9934 19H74.2263C72.7194 19 71.4865 19.274 70.3907 19.8219V19H64.2263V19.8219C63.5413 19.274 62.7194 19 61.6235 19H39.5687L38.0619 22.4247L36.555 19H29.5687V20.6438L28.7468 19H22.8564L20.1167 25.4384L16.966 32.5616H20.1167H23.9523L24.7742 30.3699H26.692L27.5139 32.5616H35.4592V30.9178L36.1441 32.5616H40.1167L40.8016 30.9178V32.5616H59.8427V29H60.1167C60.3907 29 60.3907 29 60.3907 29.411V32.4247H70.2537V31.6027C71.0756 32.0137 72.3085 32.4247 73.9523 32.4247H78.0619L78.8838 30.2329H80.8016L81.6235 32.4247H89.5687V30.3699L90.8016 32.4247H97.24V19H91.0756ZM44.7742 30.5068H42.4455V22.9726L39.1578 30.5068H37.103L33.8153 22.9726V30.5068H29.1578L28.1989 28.4521H23.5413L22.7194 30.6438H20.1167L24.2263 20.9178H27.6509L31.4866 30.0959V20.9178H35.1852L38.1989 27.4931L40.9386 20.9178H44.7742V30.5068ZM54.0893 22.9726H48.7468V24.7534H53.9523V26.6712H48.7468V28.589H54.0893V30.6438H46.4181V20.9178H54.0893V22.9726ZM64.3633 26.9452C64.6372 27.4931 64.7742 27.9041 64.7742 28.726V30.6438H62.4455V29.411C62.4455 28.863 62.4455 28.0411 62.0345 27.4931C61.6235 27.0822 61.2126 27.0822 60.3907 27.0822H57.9249V30.6438H55.5961V20.9178H60.8016C62.0345 20.9178 62.8564 20.9178 63.5413 21.3288C64.2263 21.7397 64.6372 22.4247 64.6372 23.5205C64.6372 25.0274 63.6783 25.8493 62.9934 26.1233C63.6783 26.2603 64.0893 26.6712 64.3633 26.9452ZM68.4728 30.5068H66.1441V20.7808H68.4728V30.5068ZM95.4591 30.5068H92.1715L87.7879 23.2466V30.5068H83.1304L82.3085 28.4521H77.5139L76.692 30.6438H74.0893C72.9934 30.6438 71.6235 30.3699 70.8016 29.5479C69.9797 28.726 69.5687 27.6301 69.5687 25.8493C69.5687 24.4795 69.8427 23.1096 70.8016 22.0137C71.4865 21.1918 72.7194 20.9178 74.2263 20.9178H76.4181V22.9726H74.2263C73.4044 22.9726 72.9934 23.1096 72.4454 23.5205C72.0345 23.9315 71.7605 24.7534 71.7605 25.7123C71.7605 26.8082 71.8975 27.4932 72.4454 28.0411C72.8564 28.4521 73.4044 28.589 74.0893 28.589H75.0482L78.1989 21.0548H81.6235L85.4592 30.2329V21.0548H88.8838L92.8564 27.7671V21.0548H95.1852V30.5068H95.4591Z" fill="#031642"></path><path d="M78.3358 26.3974H81.4865L79.9797 22.5618L78.3358 26.3974Z" fill="#031642"></path><path d="M55.0482 46.1233V38.3151L51.4865 42.1507L55.0482 46.1233Z" fill="#031642"></path><path d="M40.3907 39.274V41.0549H45.4592V42.9727H40.3907V45.0275H46.0071L48.6099 42.1508L46.1441 39.274H40.3907Z" fill="#031642"></path><path d="M60.2537 39.274H57.377V41.7398H60.3907C61.2126 41.7398 61.7605 41.3288 61.7605 40.5069C61.6235 39.685 61.0756 39.274 60.2537 39.274Z" fill="#031642"></path><path d="M102.582 41.6028V35.4384H100.939H96.829C95.5961 35.4384 94.6372 35.7124 93.9523 36.2603V35.4384H87.6509C86.692 35.4384 85.4591 35.7124 84.9112 36.2603V35.4384H73.8153V36.2603C72.9934 35.5754 71.4865 35.4384 70.8016 35.4384H63.4043V36.2603C62.7194 35.5754 61.0756 35.4384 60.2537 35.4384H52.0345L50.1167 37.4932L48.3358 35.4384H36.0071V48.8631H48.0619L49.9797 46.8083L51.7605 48.8631H59.1578V45.7124H60.1167C61.0756 45.7124 62.3084 45.7124 63.2674 45.3014V49.0001H69.4317V45.4384H69.7057C70.1167 45.4384 70.1167 45.4384 70.1167 45.8494V49.0001H88.7468C89.9797 49.0001 91.2126 48.7261 91.8975 48.1781V49.0001H97.7879C99.0208 49.0001 100.254 48.8631 101.076 48.3151C102.445 47.4932 103.267 45.9864 103.267 44.2055C103.267 43.2466 102.993 42.2877 102.582 41.6028ZM60.1167 43.7946H57.3769V47.0823H52.9934L50.2537 43.9316L47.3769 47.0823H38.3358V37.3562H47.5139L50.2537 40.5069L53.1304 37.3562H60.3906C62.1715 37.3562 64.2263 37.9042 64.2263 40.5069C64.0893 43.2466 62.1715 43.7946 60.1167 43.7946ZM73.8153 43.2466C74.0893 43.6576 74.2263 44.2055 74.2263 45.0275V46.9453H71.8975V45.7124C71.8975 45.1644 71.8975 44.2055 71.4865 43.7946C71.2126 43.3836 70.6646 43.3836 69.8427 43.3836H67.3769V46.9453H65.0482V37.2192H70.2537C71.3495 37.2192 72.3084 37.2192 72.9934 37.6302C73.6783 38.0412 74.2263 38.7261 74.2263 39.822C74.2263 41.3288 73.2673 42.1507 72.5824 42.4247C73.2673 42.6987 73.6783 42.9727 73.8153 43.2466ZM83.2673 39.274H77.9249V41.0549H83.1304V42.9727H77.9249V44.8905H83.2673V46.9453H75.5961V37.2192H83.2673V39.274ZM89.0208 46.9453H84.6372V44.8905H89.0208C89.4317 44.8905 89.7057 44.8905 89.9797 44.6165C90.1167 44.4795 90.2537 44.2055 90.2537 43.9316C90.2537 43.6576 90.1167 43.3836 89.9797 43.2466C89.8427 43.1096 89.5687 42.9727 89.1578 42.9727C86.966 42.8357 84.3632 42.9727 84.3632 39.959C84.3632 38.5891 85.1852 37.0823 87.6509 37.0823H92.1715V39.411H87.9249C87.5139 39.411 87.2399 39.411 86.966 39.548C86.692 39.685 86.692 39.959 86.692 40.2329C86.692 40.6439 86.966 40.7809 87.24 40.9179C87.5139 41.0549 87.7879 41.0549 88.0619 41.0549H89.2948C90.5276 41.0549 91.3495 41.3288 91.8975 41.8768C92.3084 42.2877 92.5824 42.9727 92.5824 43.9316C92.5824 45.9864 91.3495 46.9453 89.0208 46.9453ZM100.802 45.9864C100.254 46.5343 99.2947 46.9453 97.9249 46.9453H93.5413V44.8905H97.9249C98.3358 44.8905 98.6098 44.8905 98.8838 44.6165C99.0208 44.4795 99.1578 44.2055 99.1578 43.9316C99.1578 43.6576 99.0208 43.3836 98.8838 43.2466C98.7468 43.1096 98.4728 42.9727 98.0619 42.9727C95.8701 42.8357 93.2674 42.9727 93.2674 39.959C93.2674 38.5891 94.0893 37.0823 96.555 37.0823H101.076V39.411H96.966C96.555 39.411 96.2811 39.411 96.0071 39.548C95.7331 39.685 95.7331 39.959 95.7331 40.2329C95.7331 40.6439 95.8701 40.7809 96.281 40.9179C96.555 41.0549 96.829 41.0549 97.103 41.0549H98.3358C99.5687 41.0549 100.391 41.3288 100.939 41.8768C101.076 41.8768 101.076 42.0138 101.076 42.0138C101.487 42.5617 101.624 43.2466 101.624 43.9316C101.624 44.7535 101.35 45.4384 100.802 45.9864Z" fill="#031642"></path><path d="M71.3495 39.5478C71.0756 39.4108 70.6646 39.4108 70.2536 39.4108H67.5139V41.6026H70.2536C70.6646 41.6026 71.0756 41.6026 71.3495 41.4656C71.6235 41.3286 71.7605 40.9177 71.7605 40.5067C71.8975 39.9588 71.6235 39.6848 71.3495 39.5478Z" fill="#031642"></path><path d="M61.7605 23.1098C61.4866 22.9728 61.0756 22.9728 60.6647 22.9728H57.9249V25.1646H60.6647C61.0756 25.1646 61.4866 25.1646 61.7605 25.0276C62.0345 24.8906 62.1715 24.4797 62.1715 24.0687C62.3085 23.5208 62.0345 23.2468 61.7605 23.1098Z" fill="#031642"></path><path d="M78.3359 26.3974H81.4866L79.9797 22.5618L78.3359 26.3974Z" fill="#031642"></path><path d="M55.0482 46.1234V38.3152L51.4866 42.1508L55.0482 46.1234Z" fill="#031642"></path><path d="M60.2537 39.2741H57.377V41.7399H60.3907C61.2126 41.7399 61.7605 41.3289 61.7605 40.507C61.6235 39.6851 61.0756 39.2741 60.2537 39.2741Z" fill="#031642"></path><path d="M71.3496 39.5481C71.0756 39.4111 70.6647 39.4111 70.2537 39.4111H67.514V41.6029H70.2537C70.6647 41.6029 71.0756 41.6029 71.3496 41.4659C71.6236 41.3289 71.7606 40.9179 71.7606 40.507C71.8975 39.959 71.6236 39.685 71.3496 39.5481Z" fill="#031642"></path><path d="M59.2948 46.6713L57.3769 44.6165V46.9453H52.8564L50.1167 43.7946L47.103 46.9453H38.0619V37.3562H47.24L50.1167 40.5069L51.4865 38.8631L48.0619 35.4384H36.0071V48.8631H48.0619L50.1167 46.8083L51.8975 48.8631H59.2948V46.6713Z" fill="#031642"></path><path d="M45.0482 32.4247L43.2674 30.5068H42.4455V29.6849L40.3907 27.6301L39.0208 30.5068H37.103L33.8153 22.9726V30.5068H29.1578L28.1989 28.4521H23.5413L22.5824 30.5068H20.1167L24.2263 20.9178H27.6509L31.4865 30.0959V20.9178H33.5413L31.6235 19H29.5687V20.6438L28.8838 19H22.8564L20.1167 25.4384L16.966 32.4247H20.1167H24.0893L24.9112 30.3699H26.829L27.7879 32.4247H35.4592V30.7808L36.1441 32.4247H40.1167L40.8016 30.7808V32.4247H45.0482Z" fill="#031642"></path><path d="M38.7468 26.1234L36.5551 23.9316L38.1989 27.4932L38.7468 26.1234Z" fill="#031642"></path><path d="M101.076 48.178C102.308 47.3561 103.13 45.9862 103.267 44.4794L101.35 42.5616C101.487 42.9725 101.624 43.3835 101.624 43.9315C101.624 44.7534 101.35 45.4383 100.802 45.9862C100.254 46.5342 99.2948 46.9452 97.9249 46.9452H93.5414V44.8904H97.9249C98.3359 44.8904 98.6099 44.8904 98.8838 44.6164C99.0208 44.4794 99.1578 44.2054 99.1578 43.9315C99.1578 43.6575 99.0208 43.3835 98.8838 43.2465C98.7468 43.1095 98.4729 42.9725 98.0619 42.9725C95.8701 42.8356 93.2674 42.9726 93.2674 39.9589C93.2674 38.589 94.0893 37.3561 96.1441 37.0821L94.6373 35.5753C94.3633 35.7123 94.2263 35.8493 94.0893 35.8493V35.0273H87.7879C86.829 35.0273 85.5962 35.3013 85.0482 35.8493V35.0273H73.8153V35.8493C72.9934 35.1643 71.4866 35.0273 70.8016 35.0273H63.4044V35.8493C62.7195 35.1643 61.0756 35.0273 60.2537 35.0273H52.0345L50.1167 37.0821L48.3359 35.0273H46.829L50.9386 39.1369L52.9934 36.9452H60.2537C62.0345 36.9452 64.0893 37.4931 64.0893 40.0958C64.0893 42.8356 62.1715 43.3835 60.1167 43.3835H57.377V45.4383L59.4318 47.4931V45.4383H60.1167C61.0756 45.4383 62.3085 45.4383 63.2674 45.0273V48.726H69.4318V45.1643H69.7058C70.1167 45.1643 70.1167 45.1643 70.1167 45.5753V48.726H88.7468C89.9797 48.726 91.2126 48.452 91.8975 47.9041V48.726H97.7879C98.8838 48.863 100.117 48.726 101.076 48.178ZM73.8153 43.2465C74.0893 43.6575 74.2263 44.2054 74.2263 45.0273V46.9452H71.8975V45.7123C71.8975 45.1643 71.8975 44.2054 71.4866 43.7945C71.2126 43.3835 70.6647 43.3835 69.8427 43.3835H67.377V46.9452H65.0482V37.2191H70.2537C71.3496 37.2191 72.3085 37.2191 72.9934 37.6301C73.6784 38.041 74.2263 38.726 74.2263 39.8219C74.2263 41.3287 73.2674 42.1506 72.5825 42.4246C73.2674 42.6986 73.6784 42.9725 73.8153 43.2465ZM83.2674 39.2739H77.9249V41.0547H83.1304V42.9725H77.9249V44.8904H83.2674V46.9452H75.5962V37.2191H83.2674V39.2739ZM89.0208 46.9452H84.6373V44.8904H89.0208C89.4318 44.8904 89.7057 44.8904 89.9797 44.6164C90.1167 44.4794 90.2537 44.2054 90.2537 43.9315C90.2537 43.6575 90.1167 43.3835 89.9797 43.2465C89.8427 43.1095 89.5688 42.9725 89.1578 42.9725C86.966 42.8356 84.3633 42.9726 84.3633 39.9589C84.3633 38.589 85.1852 37.0821 87.651 37.0821H92.1715V39.4109H87.9249C87.514 39.4109 87.24 39.4109 86.966 39.5479C86.6921 39.6849 86.6921 39.9588 86.6921 40.2328C86.6921 40.6438 86.966 40.7808 87.24 40.9178C87.514 41.0547 87.7879 41.0547 88.0619 41.0547H89.2948C90.5277 41.0547 91.3496 41.3287 91.8975 41.8767C92.3085 42.2876 92.5825 42.9725 92.5825 43.9315C92.5825 45.9862 91.3496 46.9452 89.0208 46.9452Z" fill="#031642"></path><path d="M95.5961 40.2328C95.5961 40.6438 95.7331 40.7807 96.1441 40.9177C96.418 41.0547 96.692 41.0547 96.966 41.0547H98.1989C99.0208 41.0547 99.5687 41.1917 100.117 41.4657L98.0619 39.4109H96.829C96.418 39.4109 96.1441 39.4109 95.8701 39.5479C95.7331 39.6849 95.5961 39.9588 95.5961 40.2328Z" fill="#031642"></path><path d="M90.8016 32.0135L91.0756 32.4245H91.2126L90.8016 32.0135Z" fill="#031642"></path><path d="M83.2674 24.4794L85.5962 30.0958V26.8081L83.2674 24.4794Z" fill="#031642"></path><path d="M59.8427 29.0002H60.1167C60.3907 29.0002 60.3907 29.0002 60.3907 29.4111V32.4248H70.2537V31.6029C71.0756 32.0139 72.3085 32.4248 73.9523 32.4248H78.0619L78.8838 30.233H80.8016L81.6235 32.4248H89.5687V31.055L87.6509 29.1371V30.644H82.9934L82.3085 28.4522H77.514L76.692 30.644H74.0893C72.9934 30.644 71.6235 30.37 70.8016 29.5481C69.9797 28.7262 69.5687 27.6303 69.5687 25.8495C69.5687 24.4796 69.8427 23.1097 70.8016 22.0139C71.4865 21.1919 72.7194 20.918 74.2263 20.918H76.4181V22.9728H74.2263C73.4044 22.9728 72.9934 23.1097 72.4455 23.5207C72.0345 23.9317 71.7605 24.7536 71.7605 25.7125C71.7605 26.8084 71.8975 27.4933 72.4455 28.0413C72.8564 28.4522 73.4044 28.5892 74.0893 28.5892H75.0482L78.1989 21.055H79.5687L77.6509 19.1371H74.0893C72.5824 19.1371 71.3496 19.4111 70.2537 19.9591V19.1371H64.2263V19.9591C63.5413 19.4111 62.7194 19.1371 61.6235 19.1371H39.5687L38.0619 22.5618L36.555 19.1371H30.5276L32.4455 21.055H35.1852L37.514 26.1234L38.3359 26.9454L40.8016 20.918H44.6372V30.644H42.3085V23.1097L39.9797 28.5892L43.9523 32.5618H59.7057L59.8427 29.0002ZM66.1441 20.918H68.4729V30.644H66.1441V20.918ZM54.0893 22.9728H48.7468V24.7536H53.9523V26.6714H48.7468V28.5892H54.0893V30.644H46.4181V20.918H54.0893V22.9728ZM57.9249 30.507H55.5961V20.781H60.8016C62.0345 20.781 62.8564 20.781 63.5413 21.1919C64.2263 21.6029 64.6372 22.2878 64.6372 23.3837C64.6372 24.8906 63.6783 25.7125 62.9934 25.9865C63.5413 26.1234 63.9523 26.5344 64.0893 26.8084C64.3633 27.3563 64.5003 27.7673 64.5003 28.5892V30.507H62.1715V29.2741C62.1715 28.7262 62.1715 27.9043 61.7605 27.3563C61.6235 27.0824 61.2126 27.0823 60.3907 27.0823H57.9249V30.507Z" fill="#031642"></path></svg> 