<svg width="20" height="15" viewBox="0 0 20 15" fill="none" xmlns="http://www.w3.org/2000/svg">
<path d="M9.17523 14.568C9.26696 14.7012 9.38971 14.8102 9.5329 14.8854C9.67608 14.9607 9.83541 15 9.99717 15C10.1589 15 10.3183 14.9607 10.4615 14.8854C10.6046 14.8102 10.7274 14.7012 10.8191 14.568L19.8185 1.56889C19.9227 1.41896 19.9837 1.24335 19.9951 1.06113C20.0065 0.87892 19.9677 0.697075 19.883 0.535357C19.7983 0.373639 19.6708 0.238232 19.5146 0.143848C19.3583 0.0494646 19.1791 -0.000286324 18.9966 1.23957e-06H0.997793C0.815649 0.000753597 0.637156 0.0511443 0.481509 0.145754C0.325862 0.240364 0.198951 0.375613 0.114422 0.536957C0.0298941 0.698301 -0.00905254 0.879636 0.00177068 1.06146C0.0125939 1.24328 0.0727775 1.41872 0.175849 1.56889L9.17523 14.568Z" fill="#7E7E7E"/>
</svg>
