<svg width="17" height="17" viewBox="0 0 17 17" fill="none" xmlns="http://www.w3.org/2000/svg">
<path d="M12 9.70814C12.202 9.70814 12.3958 9.62786 12.5387 9.48498C12.6816 9.34209 12.7619 9.1483 12.7619 8.94623C12.7619 8.74416 12.6816 8.55037 12.5387 8.40748C12.3958 8.2646 12.202 8.18433 12 8.18433C11.7979 8.18433 11.6041 8.2646 11.4612 8.40748C11.3183 8.55037 11.2381 8.74416 11.2381 8.94623C11.2381 9.1483 11.3183 9.34209 11.4612 9.48498C11.6041 9.62786 11.7979 9.70814 12 9.70814ZM12 12.7558C12.202 12.7558 12.3958 12.6755 12.5387 12.5326C12.6816 12.3897 12.7619 12.1959 12.7619 11.9938C12.7619 11.7918 12.6816 11.598 12.5387 11.4551C12.3958 11.3122 12.202 11.2319 12 11.2319C11.7979 11.2319 11.6041 11.3122 11.4612 11.4551C11.3183 11.598 11.2381 11.7918 11.2381 11.9938C11.2381 12.1959 11.3183 12.3897 11.4612 12.5326C11.6041 12.6755 11.7979 12.7558 12 12.7558ZM8.95235 8.94623C8.95235 9.1483 8.87208 9.34209 8.7292 9.48498C8.58631 9.62786 8.39252 9.70814 8.19045 9.70814C7.98838 9.70814 7.79458 9.62786 7.6517 9.48498C7.50881 9.34209 7.42854 9.1483 7.42854 8.94623C7.42854 8.74416 7.50881 8.55037 7.6517 8.40748C7.79458 8.2646 7.98838 8.18433 8.19045 8.18433C8.39252 8.18433 8.58631 8.2646 8.7292 8.40748C8.87208 8.55037 8.95235 8.74416 8.95235 8.94623ZM8.95235 11.9938C8.95235 12.1959 8.87208 12.3897 8.7292 12.5326C8.58631 12.6755 8.39252 12.7558 8.19045 12.7558C7.98838 12.7558 7.79458 12.6755 7.6517 12.5326C7.50881 12.3897 7.42854 12.1959 7.42854 11.9938C7.42854 11.7918 7.50881 11.598 7.6517 11.4551C7.79458 11.3122 7.98838 11.2319 8.19045 11.2319C8.39252 11.2319 8.58631 11.3122 8.7292 11.4551C8.87208 11.598 8.95235 11.7918 8.95235 11.9938ZM4.38092 9.70814C4.58299 9.70814 4.77679 9.62786 4.91967 9.48498C5.06256 9.34209 5.14283 9.1483 5.14283 8.94623C5.14283 8.74416 5.06256 8.55037 4.91967 8.40748C4.77679 8.2646 4.58299 8.18433 4.38092 8.18433C4.17885 8.18433 3.98506 8.2646 3.84218 8.40748C3.69929 8.55037 3.61902 8.74416 3.61902 8.94623C3.61902 9.1483 3.69929 9.34209 3.84218 9.48498C3.98506 9.62786 4.17885 9.70814 4.38092 9.70814ZM4.38092 12.7558C4.58299 12.7558 4.77679 12.6755 4.91967 12.5326C5.06256 12.3897 5.14283 12.1959 5.14283 11.9938C5.14283 11.7918 5.06256 11.598 4.91967 11.4551C4.77679 11.3122 4.58299 11.2319 4.38092 11.2319C4.17885 11.2319 3.98506 11.3122 3.84218 11.4551C3.69929 11.598 3.61902 11.7918 3.61902 11.9938C3.61902 12.1959 3.69929 12.3897 3.84218 12.5326C3.98506 12.6755 4.17885 12.7558 4.38092 12.7558Z" fill="#7E7E7E"/>
<path fill-rule="evenodd" clip-rule="evenodd" d="M4.38095 0.374756C4.5325 0.374756 4.67785 0.43496 4.78501 0.542123C4.89218 0.649287 4.95238 0.794632 4.95238 0.946184V1.52752C5.45676 1.51761 6.01219 1.51761 6.62324 1.51761H9.75695C10.3688 1.51761 10.9242 1.51761 11.4286 1.52752V0.946184C11.4286 0.794632 11.4888 0.649287 11.5959 0.542123C11.7031 0.43496 11.8484 0.374756 12 0.374756C12.1516 0.374756 12.2969 0.43496 12.4041 0.542123C12.5112 0.649287 12.5714 0.794632 12.5714 0.946184V1.57628C12.7695 1.59152 12.957 1.61057 13.1345 1.63418C14.0274 1.75457 14.7505 2.00752 15.3211 2.57742C15.891 3.14809 16.144 3.87114 16.2644 4.76409C16.381 5.63266 16.381 6.74123 16.381 8.14161V9.75076C16.381 11.1511 16.381 12.2605 16.2644 13.1283C16.144 14.0212 15.891 14.7443 15.3211 15.3149C14.7505 15.8849 14.0274 16.1378 13.1345 16.2582C12.2659 16.3748 11.1573 16.3748 9.75695 16.3748H6.624C5.22362 16.3748 4.11429 16.3748 3.24648 16.2582C2.35352 16.1378 1.63048 15.8849 1.05981 15.3149C0.489905 14.7443 0.236952 14.0212 0.116571 13.1283C0 12.2597 0 11.1511 0 9.75076V8.14161C0 6.74123 0 5.6319 0.116571 4.76409C0.236952 3.87114 0.489905 3.14809 1.05981 2.57742C1.63048 2.00752 2.35352 1.75457 3.24648 1.63418C3.424 1.61057 3.61219 1.59152 3.80952 1.57628V0.946184C3.80952 0.794632 3.86973 0.649287 3.97689 0.542123C4.08405 0.43496 4.2294 0.374756 4.38095 0.374756ZM3.3981 2.76714C2.63238 2.86999 2.19048 3.06352 1.86819 3.3858C1.5459 3.70809 1.35238 4.14999 1.24952 4.91647C1.232 5.04599 1.21752 5.18314 1.20533 5.32714H15.1756C15.1634 5.18237 15.149 5.04599 15.1314 4.91571C15.0286 4.14999 14.835 3.70809 14.5128 3.3858C14.1905 3.06352 13.7486 2.86999 12.9821 2.76714C12.1996 2.66199 11.1672 2.66047 9.71429 2.66047H6.66667C5.21371 2.66047 4.1821 2.66199 3.3981 2.76714ZM1.14286 8.18428C1.14286 7.53361 1.14286 6.96752 1.15276 6.46999H15.2282C15.2381 6.96752 15.2381 7.53361 15.2381 8.18428V9.70809C15.2381 11.161 15.2366 12.1934 15.1314 12.9767C15.0286 13.7424 14.835 14.1843 14.5128 14.5066C14.1905 14.8289 13.7486 15.0224 12.9821 15.1252C12.1996 15.2304 11.1672 15.2319 9.71429 15.2319H6.66667C5.21371 15.2319 4.1821 15.2304 3.3981 15.1252C2.63238 15.0224 2.19048 14.8289 1.86819 14.5066C1.5459 14.1843 1.35238 13.7424 1.24952 12.9759C1.14438 12.1934 1.14286 11.161 1.14286 9.70809V8.18428Z" fill="#7E7E7E"/>
</svg>
