<svg width="26" height="30" viewBox="0 0 26 30" fill="none" xmlns="http://www.w3.org/2000/svg">
<path d="M25.6842 4.28571H18.2143V1.07143C18.2143 0.787268 18.1014 0.514746 17.9005 0.313814C17.6995 0.112882 17.427 0 17.1429 0H8.57143C8.28727 0 8.01475 0.112882 7.81381 0.313814C7.61288 0.514746 7.5 0.787268 7.5 1.07143V4.28571H0.0301337L0 6.96429H2.20982L3.55513 27.9911C3.58918 28.5348 3.82908 29.0452 4.22602 29.4184C4.62296 29.7916 5.14714 29.9995 5.69196 30H20.0223C20.5668 29.9999 21.0909 29.7926 21.488 29.4201C21.8852 29.0475 22.1256 28.5378 22.1605 27.9944L23.5045 6.96429H25.7143L25.6842 4.28571ZM7.5 25.7143L6.89732 8.57143H9.10714L9.70982 25.7143H7.5ZM13.9286 25.7143H11.7857V8.57143H13.9286V25.7143ZM15.5357 4.28571H10.1786V2.41071C10.1786 2.33967 10.2068 2.27154 10.257 2.22131C10.3073 2.17108 10.3754 2.14286 10.4464 2.14286H15.2679C15.3389 2.14286 15.407 2.17108 15.4573 2.22131C15.5075 2.27154 15.5357 2.33967 15.5357 2.41071V4.28571ZM18.2143 25.7143H16.0045L16.6071 8.57143H18.817L18.2143 25.7143Z" fill="#007486"/>
</svg>
