<?xml version="1.0" encoding="UTF-8"?> <svg xmlns="http://www.w3.org/2000/svg" width="500" height="200" viewBox="0 0 500 200" fill="none"><rect width="500" height="200"></rect><g clip-path="url(#clip0_347_859)"><path d="M216.666 178.663H176.163L201.496 21.8426H241.998L216.666 178.663Z" fill="#00579F"></path><path d="M363.495 25.6764C355.506 22.5034 342.835 18.9999 327.167 18.9999C287.168 18.9999 259.001 40.3531 258.829 70.8816C258.496 93.4055 278.995 105.916 294.327 113.426C309.997 121.1 315.324 126.109 315.324 132.95C315.164 143.456 302.661 148.298 291 148.298C274.829 148.298 266.164 145.802 252.997 139.957L247.663 137.451L241.996 172.654C251.495 176.987 268.997 180.831 287.168 181C329.667 181 357.335 159.977 357.663 127.444C357.825 109.592 347.001 95.9134 323.665 84.7357C309.498 77.5603 300.823 72.722 300.823 65.3804C300.989 58.7061 308.161 51.87 324.152 51.87C337.32 51.5352 346.994 54.7038 354.323 57.8746L357.987 59.5399L363.495 25.6764Z" fill="#00579F"></path><path d="M417.328 123.107C420.663 114.098 433.499 79.23 433.499 79.23C433.33 79.5648 436.827 70.0546 438.828 64.2163L441.658 77.7288C441.658 77.7288 449.328 115.266 450.994 123.107C444.664 123.107 425.328 123.107 417.328 123.107ZM467.324 21.8426H435.995C426.333 21.8426 418.993 24.6764 414.825 34.854L354.662 178.661H397.161C397.161 178.661 404.158 159.305 405.662 155.137C410.324 155.137 451.667 155.137 457.665 155.137C458.828 160.642 462.498 178.661 462.498 178.661H500L467.324 21.8426Z" fill="#00579F"></path><path d="M142.333 21.8426L102.666 128.779L98.3318 107.091C90.9983 82.066 67.999 54.8768 42.333 41.3575L78.6659 178.497H121.497L185.162 21.8426H142.333Z" fill="#00579F"></path><path d="M65.8329 21.8426H0.666676L0 25.0112C50.8337 38.0249 84.4999 69.3938 98.3318 107.098L84.1654 35.0248C81.8332 25.009 74.6658 22.173 65.8329 21.8426Z" fill="#FAA61A"></path></g><defs><clipPath id="clip0_347_859"><rect width="500" height="162" fill="white" transform="translate(0 19)"></rect></clipPath></defs></svg> 